<svg width="25" height="25" viewBox="0 0 25 25" fill="none" xmlns="http://www.w3.org/2000/svg">
<path d="M24.4381 7.66741C24.2598 7.50072 24.0478 7.36852 23.8141 7.27848C23.5805 7.18844 23.3299 7.14234 23.0769 7.14286H19.2308V6.25C19.2308 4.5924 18.5216 3.00268 17.2594 1.83058C15.9971 0.65848 14.2851 0 12.5 0C10.7149 0 9.00289 0.65848 7.74063 1.83058C6.47836 3.00268 5.76923 4.5924 5.76923 6.25V7.14286H1.92308C1.41304 7.14286 0.923903 7.33099 0.563256 7.66588C0.202609 8.00077 0 8.45497 0 8.92857V20.9821C0 23.1585 1.98317 25 4.32692 25H20.6731C21.8068 25.0003 22.8956 24.5887 23.7067 23.8532C24.1149 23.4916 24.44 23.057 24.6622 22.5755C24.8845 22.094 24.9994 21.5757 25 21.0519V8.92857C25.0008 8.6943 24.9515 8.46221 24.8551 8.24573C24.7586 8.02926 24.6169 7.83269 24.4381 7.66741ZM7.69231 6.25C7.69231 5.066 8.19883 3.93049 9.10044 3.09327C10.0021 2.25606 11.2249 1.78571 12.5 1.78571C13.7751 1.78571 14.9979 2.25606 15.8995 3.09327C16.8012 3.93049 17.3077 5.066 17.3077 6.25V7.14286H7.69231V6.25ZM19.2308 11.6071C19.2308 13.2647 18.5216 14.8545 17.2594 16.0266C15.9971 17.1987 14.2851 17.8571 12.5 17.8571C10.7149 17.8571 9.00289 17.1987 7.74063 16.0266C6.47836 14.8545 5.76923 13.2647 5.76923 11.6071V10.7143C5.76923 10.4775 5.87053 10.2504 6.05086 10.0829C6.23118 9.9155 6.47575 9.82143 6.73077 9.82143C6.98578 9.82143 7.23035 9.9155 7.41068 10.0829C7.591 10.2504 7.69231 10.4775 7.69231 10.7143V11.6071C7.69231 12.7911 8.19883 13.9267 9.10044 14.7639C10.0021 15.6011 11.2249 16.0714 12.5 16.0714C13.7751 16.0714 14.9979 15.6011 15.8995 14.7639C16.8012 13.9267 17.3077 12.7911 17.3077 11.6071V10.7143C17.3077 10.4775 17.409 10.2504 17.5893 10.0829C17.7696 9.9155 18.0142 9.82143 18.2692 9.82143C18.5242 9.82143 18.7688 9.9155 18.9491 10.0829C19.1295 10.2504 19.2308 10.4775 19.2308 10.7143V11.6071Z" fill="black"/>
</svg>
