<svg width="35" height="35" viewBox="0 0 35 35" fill="none" xmlns="http://www.w3.org/2000/svg">
<path d="M34.2133 10.7344C33.9638 10.501 33.6669 10.3159 33.3398 10.1899C33.0126 10.0638 32.6618 9.99928 32.3077 10H26.9231V8.75C26.9231 6.42936 25.9303 4.20376 24.1631 2.56282C22.3959 0.921872 19.9991 0 17.5 0C15.0008 0 12.604 0.921872 10.8369 2.56282C9.06971 4.20376 8.07692 6.42936 8.07692 8.75V10H2.69231C1.97826 10 1.29346 10.2634 0.788558 10.7322C0.283653 11.2011 0 11.837 0 12.5V29.375C0 32.4219 2.77644 35 6.05769 35H28.9423C30.5295 35.0005 32.0539 34.4242 33.1894 33.3945C33.7609 32.8883 34.2159 32.2798 34.5271 31.6057C34.8383 30.9317 34.9992 30.206 35 29.4727V12.5C35.0011 12.172 34.9321 11.8471 34.7971 11.544C34.6621 11.241 34.4636 10.9658 34.2133 10.7344ZM10.7692 8.75C10.7692 7.0924 11.4784 5.50269 12.7406 4.33058C14.0029 3.15848 15.7149 2.5 17.5 2.5C19.2851 2.5 20.9971 3.15848 22.2594 4.33058C23.5216 5.50269 24.2308 7.0924 24.2308 8.75V10H10.7692V8.75ZM26.9231 16.25C26.9231 18.5706 25.9303 20.7962 24.1631 22.4372C22.3959 24.0781 19.9991 25 17.5 25C15.0008 25 12.604 24.0781 10.8369 22.4372C9.06971 20.7962 8.07692 18.5706 8.07692 16.25V15C8.07692 14.6685 8.21875 14.3505 8.4712 14.1161C8.72365 13.8817 9.06605 13.75 9.42307 13.75C9.7801 13.75 10.1225 13.8817 10.3749 14.1161C10.6274 14.3505 10.7692 14.6685 10.7692 15V16.25C10.7692 17.9076 11.4784 19.4973 12.7406 20.6694C14.0029 21.8415 15.7149 22.5 17.5 22.5C19.2851 22.5 20.9971 21.8415 22.2594 20.6694C23.5216 19.4973 24.2308 17.9076 24.2308 16.25V15C24.2308 14.6685 24.3726 14.3505 24.625 14.1161C24.8775 13.8817 25.2199 13.75 25.5769 13.75C25.9339 13.75 26.2763 13.8817 26.5288 14.1161C26.7812 14.3505 26.9231 14.6685 26.9231 15V16.25Z" fill="white"/>
</svg>
