<svg width="35" height="35" viewBox="0 0 35 35" fill="none" xmlns="http://www.w3.org/2000/svg">
<path d="M34.9995 11.1111C34.9995 18.349 30.8031 22.144 25.9433 26.5399C23.4273 28.8137 20.5748 31.3928 17.9579 34.7598C17.8384 34.9132 17.6728 35 17.4997 35C17.3267 35 17.1611 34.9132 17.0416 34.7598C14.4248 31.393 11.5723 28.8139 9.05613 26.5399C4.19634 22.144 0 18.349 0 11.1111C0.000249435 7.63489 1.328 4.35892 3.58791 2.25821C5.84783 0.157432 8.77962 -0.525666 11.5115 0.411736C14.2427 1.34914 16.4588 3.79929 17.5 7.03278C18.5412 3.79929 20.7573 1.34914 23.4885 0.411736C26.2201 -0.525666 29.1519 0.157432 31.4121 2.25821C33.672 4.35899 34.9997 7.63497 35 11.1111H34.9995Z" fill="white"/>
</svg>
